<?xml version="1.0" encoding="utf-8"?>
<!-- Generator: Adobe Illustrator 16.0.0, SVG Export Plug-In . SVG Version: 6.00 Build 0)  -->
<!DOCTYPE svg PUBLIC "-//W3C//DTD SVG 1.1//EN" "http://www.w3.org/Graphics/SVG/1.1/DTD/svg11.dtd">
<svg version="1.1" xmlns="http://www.w3.org/2000/svg" xmlns:xlink="http://www.w3.org/1999/xlink" x="0px" y="0px"
	 width="284.985px" height="152.993px" viewBox="0 0 284.985 152.993" enable-background="new 0 0 284.985 152.993"
	 xml:space="preserve">
<g id="Layer_1" display="none">
	<g display="inline">
		<path fill="#42CCF8" stroke="#3E4E67" stroke-width="2" stroke-miterlimit="10" d="M-640.555,445.153h-22.12
			c-0.887,0-1.529-0.197-1.925-0.596c-0.397-0.395-0.595-1.037-0.595-1.924v-8.19c0-0.886,0.198-1.528,0.595-1.925
			c0.396-0.396,1.038-0.596,1.925-0.596h18.83c0.606,0,1.061-0.197,1.365-0.595c0.303-0.396,0.455-0.875,0.455-1.435
			c0-0.793-0.152-1.376-0.455-1.75c-0.304-0.373-0.759-0.583-1.365-0.631l-10.5-1.469c-3.267-0.467-5.892-1.541-7.875-3.221
			c-1.984-1.68-2.975-4.48-2.975-8.4v-7.35c0-3.966,1.283-7.011,3.85-9.135c2.566-2.123,6.113-3.186,10.64-3.186h19.6
			c0.886,0,1.528,0.199,1.925,0.596c0.396,0.396,0.595,1.039,0.595,1.925v8.33c0,0.887-0.199,1.528-0.595,1.925
			c-0.397,0.396-1.039,0.596-1.925,0.596h-16.31c-0.607,0-1.074,0.198-1.4,0.594c-0.327,0.397-0.49,0.899-0.49,1.506
			c0,0.607,0.163,1.119,0.49,1.539c0.326,0.42,0.793,0.654,1.4,0.701l10.43,1.399c3.266,0.468,5.903,1.54,7.91,3.22
			c2.006,1.68,3.01,4.48,3.01,8.4v7.35c0,3.967-1.295,7.012-3.885,9.135C-632.54,444.092-636.075,445.153-640.555,445.153z"/>
		<path fill="#42CCF8" stroke="#3E4E67" stroke-width="2" stroke-miterlimit="10" d="M-589.315,451.453h-10.78
			c-0.887,0-1.529-0.198-1.925-0.595c-0.397-0.396-0.595-1.039-0.595-1.926v-3.85c-5.414-0.793-9.065-2.414-10.955-4.865
			c-1.89-2.449-2.835-5.424-2.835-8.924v-23.24c0-2.146,0.315-4.096,0.945-5.846s1.75-3.255,3.36-4.515
			c1.61-1.261,3.838-2.24,6.685-2.94c2.846-0.699,6.44-1.05,10.78-1.05s7.921,0.351,10.745,1.05c2.823,0.7,5.04,1.68,6.65,2.94
			c1.61,1.26,2.73,2.765,3.36,4.515s0.945,3.699,0.945,5.846v23.24c0,1.773-0.21,3.418-0.63,4.935s-1.144,2.858-2.17,4.024
			c-1.027,1.168-2.439,2.17-4.235,3.01c-1.797,0.841-4.072,1.447-6.825,1.82v3.85c0,0.887-0.199,1.529-0.595,1.926
			C-587.787,451.254-588.429,451.453-589.315,451.453z M-600.515,429.752c0,0.935,0.35,1.715,1.05,2.346
			c0.7,0.63,2.31,0.945,4.83,0.945s4.13-0.315,4.83-0.945c0.7-0.631,1.05-1.411,1.05-2.346v-19.109c0-0.887-0.35-1.645-1.05-2.275
			c-0.7-0.63-2.31-0.945-4.83-0.945s-4.13,0.315-4.83,0.945c-0.7,0.631-1.05,1.389-1.05,2.275V429.752z"/>
		<path fill="#42CCF8" stroke="#3E4E67" stroke-width="2" stroke-miterlimit="10" d="M-525.055,394.752h10.43
			c0.886,0,1.528,0.199,1.925,0.596c0.396,0.396,0.595,1.039,0.595,1.925v27.159c0,1.494-0.059,2.883-0.175,4.166
			c-0.117,1.283-0.479,2.789-1.085,4.515l-3.5,9.521c-0.234,0.699-0.572,1.295-1.015,1.785c-0.444,0.489-1.039,0.734-1.785,0.734
			h-9.31c-0.747,0-1.424-0.163-2.03-0.49c-0.607-0.326-1.004-0.863-1.19-1.609l-3.22-11.41c-0.14-0.467-0.315-0.781-0.525-0.945
			c-0.21-0.163-0.455-0.245-0.735-0.245h-0.63c-0.28,0-0.525,0.082-0.735,0.245c-0.21,0.164-0.385,0.479-0.525,0.945l-3.29,11.41
			c-0.187,0.699-0.537,1.225-1.05,1.574c-0.514,0.351-1.144,0.525-1.89,0.525h-9.24c-0.747,0-1.389-0.232-1.925-0.7
			c-0.537-0.466-0.922-1.073-1.155-1.819l-3.5-9.66c-0.607-1.727-0.969-3.231-1.085-4.516c-0.117-1.283-0.175-2.67-0.175-4.164
			v-27.021c0-0.886,0.198-1.528,0.595-1.925c0.396-0.396,1.038-0.596,1.925-0.596h10.78c0.886,0,1.528,0.199,1.925,0.596
			c0.396,0.396,0.595,1.039,0.595,1.925v25.76l4.06-8.819c0.373-0.793,0.863-1.354,1.47-1.681c0.606-0.325,1.353-0.489,2.24-0.489
			h2.94c0.886,0,1.633,0.164,2.24,0.489c0.606,0.327,1.096,0.888,1.47,1.681l4.06,8.819v-25.76c0-0.886,0.198-1.528,0.595-1.925
			C-526.584,394.952-525.942,394.752-525.055,394.752z"/>
		<path fill="#42CCF8" stroke="#3E4E67" stroke-width="2" stroke-miterlimit="10" d="M-485.996,442.633
			c0,0.887-0.199,1.529-0.595,1.924c-0.397,0.398-1.039,0.596-1.925,0.596h-10.29c-0.887,0-1.529-0.197-1.925-0.596
			c-0.397-0.395-0.595-1.037-0.595-1.924v-18.48c0-1.4,0.221-3.01,0.665-4.83c0.443-1.82,1.131-3.943,2.065-6.37l6.09-15.89
			c0.28-0.793,0.711-1.376,1.295-1.75c0.583-0.373,1.341-0.561,2.275-0.561h18.83c0.886,0,1.621,0.188,2.205,0.561
			c0.583,0.374,1.015,0.957,1.295,1.75l6.09,15.89c0.933,2.427,1.621,4.55,2.065,6.37c0.443,1.82,0.665,3.43,0.665,4.83v18.48
			c0,0.887-0.199,1.529-0.595,1.924c-0.397,0.398-1.039,0.596-1.925,0.596h-10.57c-0.934,0-1.622-0.197-2.065-0.596
			c-0.444-0.395-0.665-1.037-0.665-1.924v-9.801h-12.39V442.633z M-482.005,409.453l-3.29,10.64h10.99l-3.29-10.64
			c-0.187-0.42-0.385-0.723-0.595-0.909s-0.455-0.281-0.735-0.281h-1.75c-0.28,0-0.525,0.095-0.735,0.281
			S-481.819,409.033-482.005,409.453z"/>
		<path fill="#42CCF8" stroke="#3E4E67" stroke-width="2" stroke-miterlimit="10" d="M-433.006,445.153h-10.85
			c-0.887,0-1.529-0.197-1.925-0.596c-0.397-0.395-0.595-1.037-0.595-1.924v-45.36c0-0.886,0.198-1.528,0.595-1.925
			c0.396-0.396,1.038-0.596,1.925-0.596h10.85c0.886,0,1.528,0.199,1.925,0.596c0.396,0.396,0.595,1.039,0.595,1.925v16.101h2.8
			l7.21-16.311c0.326-0.84,0.77-1.436,1.33-1.785s1.283-0.525,2.17-0.525h10.78c0.793,0,1.33,0.199,1.61,0.596
			c0.28,0.396,0.256,0.969-0.07,1.715l-7.14,16.311c2.613,0.139,4.701,1.062,6.265,2.764c1.563,1.705,2.345,3.955,2.345,6.756v19.74
			c0,0.887-0.199,1.529-0.595,1.924c-0.397,0.398-1.039,0.596-1.925,0.596h-10.78c-0.887,0-1.529-0.197-1.925-0.596
			c-0.397-0.395-0.595-1.037-0.595-1.924v-13.65c0-0.746-0.187-1.33-0.56-1.75c-0.374-0.42-0.934-0.63-1.68-0.63h-9.24v16.03
			c0,0.887-0.199,1.529-0.595,1.924C-431.478,444.956-432.12,445.153-433.006,445.153z"/>
		<path fill="#42CCF8" stroke="#3E4E67" stroke-width="2" stroke-miterlimit="10" d="M-335.007,445.153h-35.63
			c-0.888,0-1.529-0.197-1.926-0.596c-0.396-0.395-0.595-1.037-0.595-1.924v-45.36c0-0.886,0.198-1.528,0.595-1.925
			s1.038-0.596,1.926-0.596h10.85c0.886,0,1.528,0.199,1.925,0.596s0.596,1.039,0.596,1.925v34.649h9.59v-11.34
			c0-0.886,0.197-1.527,0.595-1.925c0.396-0.396,1.038-0.595,1.925-0.595h10.15c0.886,0,1.527,0.199,1.925,0.595
			c0.396,0.397,0.595,1.039,0.595,1.925v22.051c0,0.887-0.199,1.529-0.595,1.924C-333.479,444.956-334.121,445.153-335.007,445.153z
			"/>
		<path fill="#42CCF8" stroke="#3E4E67" stroke-width="2" stroke-miterlimit="10" d="M-307.428,442.633
			c0,0.887-0.199,1.529-0.595,1.924c-0.397,0.398-1.039,0.596-1.926,0.596h-10.29c-0.887,0-1.528-0.197-1.925-0.596
			c-0.396-0.395-0.595-1.037-0.595-1.924v-18.48c0-1.4,0.221-3.01,0.665-4.83c0.443-1.82,1.131-3.943,2.064-6.37l6.091-15.89
			c0.279-0.793,0.711-1.376,1.295-1.75c0.583-0.373,1.341-0.561,2.274-0.561h18.83c0.886,0,1.621,0.188,2.205,0.561
			c0.583,0.374,1.016,0.957,1.295,1.75l6.09,15.89c0.934,2.427,1.621,4.55,2.065,6.37c0.443,1.82,0.665,3.43,0.665,4.83v18.48
			c0,0.887-0.199,1.529-0.595,1.924c-0.397,0.398-1.039,0.596-1.926,0.596h-10.569c-0.935,0-1.622-0.197-2.065-0.596
			c-0.444-0.395-0.665-1.037-0.665-1.924v-9.801h-12.39V442.633z M-303.438,409.453l-3.29,10.64h10.989l-3.29-10.64
			c-0.187-0.42-0.385-0.723-0.595-0.909s-0.455-0.281-0.734-0.281h-1.75c-0.28,0-0.525,0.095-0.735,0.281
			S-303.252,409.033-303.438,409.453z"/>
		<path fill="#42CCF8" stroke="#3E4E67" stroke-width="2" stroke-miterlimit="10" d="M-238.408,445.153h-26.88
			c-0.887,0-1.529-0.197-1.925-0.596c-0.397-0.395-0.595-1.037-0.595-1.924v-45.36c0-0.886,0.197-1.528,0.595-1.925
			c0.396-0.396,1.038-0.596,1.925-0.596h22.33c4.573,0,7.956,0.875,10.15,2.625c2.192,1.75,3.29,4.445,3.29,8.086v3.359
			c0,1.96-0.34,3.559-1.016,4.795c-0.677,1.237-1.715,2.159-3.114,2.766c2.985,0.279,5.202,1.307,6.649,3.08
			c1.446,1.773,2.17,4.363,2.17,7.77v6.439c0,3.92-1.108,6.814-3.325,8.681S-233.788,445.153-238.408,445.153z M-252.058,406.653
			v7.561h5.949c0.887,0,1.552-0.233,1.995-0.701c0.443-0.465,0.665-1.166,0.665-2.1v-1.96c0-0.933-0.222-1.633-0.665-2.1
			c-0.443-0.466-1.108-0.7-1.995-0.7H-252.058z M-252.058,424.993v8.26h9.1c0.886,0,1.551-0.232,1.995-0.699
			c0.443-0.467,0.665-1.166,0.665-2.101v-2.729c0-0.934-0.222-1.621-0.665-2.065c-0.444-0.442-1.109-0.665-1.995-0.665H-252.058z"/>
		<path fill="#42CCF8" stroke="#3E4E67" stroke-width="2" stroke-miterlimit="10" d="M-190.879,445.153h-22.12
			c-0.887,0-1.528-0.197-1.925-0.596c-0.396-0.395-0.595-1.037-0.595-1.924v-8.19c0-0.886,0.198-1.528,0.595-1.925
			s1.038-0.596,1.925-0.596h18.83c0.606,0,1.062-0.197,1.365-0.595c0.303-0.396,0.455-0.875,0.455-1.435
			c0-0.793-0.152-1.376-0.455-1.75c-0.304-0.373-0.759-0.583-1.365-0.631l-10.5-1.469c-3.267-0.467-5.892-1.541-7.875-3.221
			s-2.975-4.48-2.975-8.4v-7.35c0-3.966,1.283-7.011,3.85-9.135c2.566-2.123,6.113-3.186,10.641-3.186h19.6
			c0.886,0,1.528,0.199,1.925,0.596s0.596,1.039,0.596,1.925v8.33c0,0.887-0.199,1.528-0.596,1.925s-1.039,0.596-1.925,0.596h-16.31
			c-0.607,0-1.074,0.198-1.4,0.594c-0.327,0.397-0.49,0.899-0.49,1.506c0,0.607,0.163,1.119,0.49,1.539
			c0.326,0.42,0.793,0.654,1.4,0.701l10.43,1.399c3.266,0.468,5.903,1.54,7.91,3.22c2.006,1.68,3.01,4.48,3.01,8.4v7.35
			c0,3.967-1.295,7.012-3.885,9.135C-182.863,444.092-186.398,445.153-190.879,445.153z"/>
	</g>
	<g display="inline">
		<path fill="#D4F0FD" stroke="#3E4E67" stroke-width="2" stroke-miterlimit="10" d="M-634.001,444.988h-22.12
			c-0.887,0-1.529-0.198-1.925-0.596c-0.397-0.396-0.595-1.037-0.595-1.925v-8.189c0-0.886,0.198-1.528,0.595-1.925
			c0.396-0.396,1.038-0.596,1.925-0.596h18.83c0.606,0,1.061-0.197,1.365-0.595c0.303-0.396,0.455-0.875,0.455-1.435
			c0-0.793-0.152-1.376-0.455-1.75c-0.304-0.373-0.759-0.583-1.365-0.631l-10.5-1.47c-3.267-0.466-5.892-1.54-7.875-3.22
			c-1.984-1.68-2.975-4.48-2.975-8.4v-7.35c0-3.966,1.283-7.011,3.85-9.135c2.566-2.123,6.113-3.186,10.64-3.186h19.6
			c0.886,0,1.528,0.199,1.925,0.595c0.396,0.397,0.595,1.039,0.595,1.926v8.33c0,0.887-0.199,1.528-0.595,1.925
			c-0.397,0.396-1.039,0.595-1.925,0.595h-16.31c-0.607,0-1.074,0.199-1.4,0.595c-0.327,0.397-0.49,0.899-0.49,1.505
			c0,0.607,0.163,1.12,0.49,1.54c0.326,0.42,0.793,0.654,1.4,0.7l10.43,1.4c3.266,0.467,5.903,1.54,7.91,3.22
			c2.006,1.68,3.01,4.48,3.01,8.4v7.35c0,3.967-1.295,7.012-3.885,9.135C-625.986,443.926-629.521,444.988-634.001,444.988z"/>
		<path fill="#D4F0FD" stroke="#3E4E67" stroke-width="2" stroke-miterlimit="10" d="M-582.761,451.288h-10.78
			c-0.887,0-1.529-0.199-1.925-0.595c-0.397-0.397-0.595-1.039-0.595-1.926v-3.85c-5.414-0.793-9.065-2.415-10.955-4.865
			c-1.89-2.449-2.835-5.425-2.835-8.925v-23.24c0-2.146,0.315-4.095,0.945-5.845s1.75-3.255,3.36-4.515
			c1.61-1.261,3.838-2.24,6.685-2.94c2.846-0.7,6.44-1.05,10.78-1.05s7.921,0.35,10.745,1.05c2.823,0.7,5.04,1.68,6.65,2.94
			c1.61,1.26,2.73,2.765,3.36,4.515s0.945,3.699,0.945,5.845v23.24c0,1.774-0.21,3.419-0.63,4.936s-1.144,2.858-2.17,4.024
			c-1.027,1.167-2.439,2.17-4.235,3.01c-1.797,0.841-4.072,1.447-6.825,1.82v3.85c0,0.887-0.199,1.528-0.595,1.926
			C-581.233,451.088-581.875,451.288-582.761,451.288z M-593.961,429.587c0,0.935,0.35,1.715,1.05,2.345
			c0.7,0.631,2.31,0.945,4.83,0.945s4.13-0.314,4.83-0.945c0.7-0.63,1.05-1.41,1.05-2.345v-19.109c0-0.887-0.35-1.646-1.05-2.275
			c-0.7-0.63-2.31-0.945-4.83-0.945s-4.13,0.315-4.83,0.945s-1.05,1.389-1.05,2.275V429.587z"/>
		<path fill="#D4F0FD" stroke="#3E4E67" stroke-width="2" stroke-miterlimit="10" d="M-518.501,394.587h10.43
			c0.886,0,1.528,0.199,1.925,0.595c0.396,0.397,0.595,1.039,0.595,1.926v27.159c0,1.494-0.059,2.883-0.175,4.165
			c-0.117,1.284-0.479,2.789-1.085,4.516l-3.5,9.52c-0.234,0.7-0.572,1.295-1.015,1.785c-0.444,0.49-1.039,0.735-1.785,0.735h-9.31
			c-0.747,0-1.424-0.163-2.03-0.49c-0.607-0.326-1.004-0.863-1.19-1.61l-3.22-11.409c-0.14-0.467-0.315-0.781-0.525-0.945
			c-0.21-0.163-0.455-0.245-0.735-0.245h-0.63c-0.28,0-0.525,0.082-0.735,0.245c-0.21,0.164-0.385,0.479-0.525,0.945l-3.29,11.409
			c-0.187,0.7-0.537,1.226-1.05,1.575c-0.514,0.351-1.144,0.525-1.89,0.525h-9.24c-0.747,0-1.389-0.233-1.925-0.7
			c-0.537-0.466-0.922-1.073-1.155-1.82l-3.5-9.66c-0.607-1.726-0.969-3.23-1.085-4.515c-0.117-1.283-0.175-2.671-0.175-4.165
			v-27.02c0-0.887,0.198-1.528,0.595-1.926c0.396-0.396,1.038-0.595,1.925-0.595h10.78c0.886,0,1.528,0.199,1.925,0.595
			c0.396,0.397,0.595,1.039,0.595,1.926v25.76l4.06-8.82c0.373-0.793,0.863-1.353,1.47-1.68c0.606-0.326,1.353-0.49,2.24-0.49h2.94
			c0.886,0,1.633,0.164,2.24,0.49c0.606,0.327,1.096,0.887,1.47,1.68l4.06,8.82v-25.76c0-0.887,0.198-1.528,0.595-1.926
			C-520.031,394.787-519.389,394.587-518.501,394.587z"/>
		<path fill="#D4F0FD" stroke="#3E4E67" stroke-width="2" stroke-miterlimit="10" d="M-479.442,442.467
			c0,0.888-0.199,1.529-0.595,1.925c-0.397,0.397-1.039,0.596-1.925,0.596h-10.29c-0.887,0-1.529-0.198-1.925-0.596
			c-0.397-0.396-0.595-1.037-0.595-1.925v-18.479c0-1.4,0.221-3.01,0.665-4.83c0.443-1.82,1.131-3.943,2.065-6.37l6.09-15.89
			c0.28-0.793,0.711-1.376,1.295-1.75c0.583-0.373,1.341-0.561,2.275-0.561h18.83c0.886,0,1.621,0.188,2.205,0.561
			c0.583,0.374,1.015,0.957,1.295,1.75l6.09,15.89c0.933,2.427,1.621,4.55,2.065,6.37c0.443,1.82,0.665,3.43,0.665,4.83v18.479
			c0,0.888-0.199,1.529-0.595,1.925c-0.397,0.397-1.039,0.596-1.925,0.596h-10.57c-0.934,0-1.622-0.198-2.065-0.596
			c-0.444-0.396-0.665-1.037-0.665-1.925v-9.8h-12.39V442.467z M-475.452,409.288l-3.29,10.64h10.99l-3.29-10.64
			c-0.187-0.42-0.385-0.723-0.595-0.91c-0.21-0.186-0.455-0.28-0.735-0.28h-1.75c-0.28,0-0.525,0.095-0.735,0.28
			C-475.067,408.565-475.266,408.868-475.452,409.288z"/>
		<path fill="#D4F0FD" stroke="#3E4E67" stroke-width="2" stroke-miterlimit="10" d="M-426.452,444.988h-10.85
			c-0.887,0-1.529-0.198-1.925-0.596c-0.397-0.396-0.595-1.037-0.595-1.925v-45.359c0-0.887,0.198-1.528,0.595-1.926
			c0.396-0.396,1.038-0.595,1.925-0.595h10.85c0.886,0,1.528,0.199,1.925,0.595c0.396,0.397,0.595,1.039,0.595,1.926v16.1h2.8
			l7.21-16.31c0.326-0.841,0.77-1.436,1.33-1.785c0.56-0.351,1.283-0.525,2.17-0.525h10.78c0.793,0,1.33,0.199,1.61,0.595
			c0.28,0.397,0.256,0.97-0.07,1.716l-7.14,16.31c2.613,0.14,4.701,1.062,6.265,2.765c1.563,1.704,2.345,3.955,2.345,6.756v19.739
			c0,0.888-0.199,1.529-0.595,1.925c-0.397,0.397-1.039,0.596-1.925,0.596h-10.78c-0.887,0-1.529-0.198-1.925-0.596
			c-0.397-0.396-0.595-1.037-0.595-1.925v-13.649c0-0.746-0.187-1.33-0.56-1.75c-0.374-0.42-0.934-0.63-1.68-0.63h-9.24v16.029
			c0,0.888-0.199,1.529-0.595,1.925C-424.924,444.79-425.566,444.988-426.452,444.988z"/>
		<path fill="#D4F0FD" stroke="#3E4E67" stroke-width="2" stroke-miterlimit="10" d="M-328.104,444.988h-35.63
			c-0.888,0-1.529-0.198-1.926-0.596c-0.396-0.396-0.595-1.037-0.595-1.925v-45.359c0-0.887,0.198-1.528,0.595-1.926
			c0.396-0.396,1.038-0.595,1.926-0.595h10.85c0.886,0,1.528,0.199,1.925,0.595c0.396,0.397,0.596,1.039,0.596,1.926v34.649h9.59
			v-11.34c0-0.886,0.197-1.528,0.595-1.925c0.396-0.396,1.038-0.595,1.925-0.595h10.15c0.886,0,1.527,0.198,1.925,0.595
			c0.396,0.396,0.595,1.039,0.595,1.925v22.05c0,0.888-0.199,1.529-0.595,1.925C-326.576,444.79-327.218,444.988-328.104,444.988z"
			/>
		<path fill="#D4F0FD" stroke="#3E4E67" stroke-width="2" stroke-miterlimit="10" d="M-300.524,442.467
			c0,0.888-0.199,1.529-0.595,1.925c-0.397,0.397-1.039,0.596-1.926,0.596h-10.29c-0.887,0-1.528-0.198-1.925-0.596
			c-0.396-0.396-0.595-1.037-0.595-1.925v-18.479c0-1.4,0.221-3.01,0.665-4.83c0.443-1.82,1.131-3.943,2.064-6.37l6.091-15.89
			c0.279-0.793,0.711-1.376,1.295-1.75c0.583-0.373,1.341-0.561,2.274-0.561h18.83c0.886,0,1.621,0.188,2.205,0.561
			c0.583,0.374,1.016,0.957,1.295,1.75l6.09,15.89c0.934,2.427,1.621,4.55,2.065,6.37c0.443,1.82,0.665,3.43,0.665,4.83v18.479
			c0,0.888-0.199,1.529-0.595,1.925c-0.397,0.397-1.039,0.596-1.926,0.596h-10.569c-0.935,0-1.622-0.198-2.065-0.596
			c-0.444-0.396-0.665-1.037-0.665-1.925v-9.8h-12.39V442.467z M-296.534,409.288l-3.29,10.64h10.989l-3.29-10.64
			c-0.187-0.42-0.385-0.723-0.595-0.91c-0.21-0.186-0.455-0.28-0.734-0.28h-1.75c-0.28,0-0.525,0.095-0.735,0.28
			C-296.149,408.565-296.349,408.868-296.534,409.288z"/>
		<path fill="#D4F0FD" stroke="#3E4E67" stroke-width="2" stroke-miterlimit="10" d="M-231.505,444.988h-26.88
			c-0.887,0-1.529-0.198-1.925-0.596c-0.397-0.396-0.595-1.037-0.595-1.925v-45.359c0-0.887,0.197-1.528,0.595-1.926
			c0.396-0.396,1.038-0.595,1.925-0.595h22.33c4.573,0,7.956,0.875,10.15,2.625c2.192,1.75,3.29,4.445,3.29,8.085v3.36
			c0,1.96-0.34,3.559-1.016,4.795c-0.677,1.237-1.715,2.159-3.114,2.765c2.985,0.28,5.202,1.308,6.649,3.08
			c1.446,1.774,2.17,4.364,2.17,7.771v6.439c0,3.92-1.108,6.814-3.325,8.681S-226.885,444.988-231.505,444.988z M-245.154,406.488
			v7.56h5.949c0.887,0,1.552-0.232,1.995-0.7c0.443-0.466,0.665-1.166,0.665-2.1v-1.96c0-0.933-0.222-1.633-0.665-2.1
			s-1.108-0.7-1.995-0.7H-245.154z M-245.154,424.828v8.26h9.1c0.886,0,1.551-0.232,1.995-0.7c0.443-0.466,0.665-1.166,0.665-2.1
			v-2.73c0-0.933-0.222-1.62-0.665-2.064c-0.444-0.443-1.109-0.665-1.995-0.665H-245.154z"/>
		<path fill="#D4F0FD" stroke="#3E4E67" stroke-width="2" stroke-miterlimit="10" d="M-183.976,444.988h-22.12
			c-0.887,0-1.528-0.198-1.925-0.596c-0.396-0.396-0.595-1.037-0.595-1.925v-8.189c0-0.886,0.198-1.528,0.595-1.925
			s1.038-0.596,1.925-0.596h18.83c0.606,0,1.062-0.197,1.365-0.595c0.303-0.396,0.455-0.875,0.455-1.435
			c0-0.793-0.152-1.376-0.455-1.75c-0.304-0.373-0.759-0.583-1.365-0.631l-10.5-1.47c-3.267-0.466-5.892-1.54-7.875-3.22
			s-2.975-4.48-2.975-8.4v-7.35c0-3.966,1.283-7.011,3.85-9.135c2.566-2.123,6.113-3.186,10.641-3.186h19.6
			c0.886,0,1.528,0.199,1.925,0.595c0.396,0.397,0.596,1.039,0.596,1.926v8.33c0,0.887-0.199,1.528-0.596,1.925
			s-1.039,0.595-1.925,0.595h-16.31c-0.607,0-1.074,0.199-1.4,0.595c-0.327,0.397-0.49,0.899-0.49,1.505
			c0,0.607,0.163,1.12,0.49,1.54c0.326,0.42,0.793,0.654,1.4,0.7l10.43,1.4c3.266,0.467,5.903,1.54,7.91,3.22
			c2.006,1.68,3.01,4.48,3.01,8.4v7.35c0,3.967-1.295,7.012-3.885,9.135C-175.96,443.926-179.495,444.988-183.976,444.988z"/>
	</g>
</g>
<g id="Layer_2">
	<g>
		<path fill="#42CCF8" stroke="#3E4E67" stroke-width="2" stroke-miterlimit="10" d="M34.081,60.161h-22.12
			c-0.887,0-1.529-0.198-1.925-0.595C9.639,59.17,9.44,58.528,9.44,57.641v-8.19c0-0.886,0.198-1.528,0.596-1.925
			c0.396-0.396,1.038-0.595,1.925-0.595h18.83c0.605,0,1.061-0.198,1.365-0.595c0.303-0.396,0.455-0.875,0.455-1.435
			c0-0.793-0.152-1.376-0.455-1.75c-0.305-0.373-0.76-0.583-1.365-0.63l-10.5-1.47c-3.268-0.466-5.893-1.54-7.875-3.22
			c-1.984-1.68-2.976-4.48-2.976-8.4v-7.35c0-3.966,1.283-7.011,3.851-9.135c2.565-2.123,6.113-3.185,10.64-3.185h19.601
			c0.886,0,1.527,0.199,1.925,0.595c0.396,0.397,0.595,1.039,0.595,1.925v8.33c0,0.887-0.199,1.529-0.595,1.925
			c-0.397,0.397-1.039,0.595-1.925,0.595H27.221c-0.606,0-1.074,0.199-1.399,0.595c-0.327,0.397-0.49,0.899-0.49,1.505
			c0,0.607,0.163,1.12,0.49,1.54c0.325,0.42,0.793,0.654,1.399,0.7l10.43,1.4c3.267,0.467,5.903,1.54,7.91,3.22
			c2.006,1.68,3.011,4.48,3.011,8.4v7.35c0,3.967-1.296,7.012-3.886,9.135C42.096,59.1,38.561,60.161,34.081,60.161z"/>
		<path fill="#42CCF8" stroke="#3E4E67" stroke-width="2" stroke-miterlimit="10" d="M84.971,66.461H74.19
			c-0.887,0-1.529-0.199-1.925-0.595c-0.397-0.397-0.595-1.039-0.595-1.925v-3.85c-5.414-0.793-9.065-2.415-10.955-4.865
			c-1.891-2.45-2.835-5.425-2.835-8.925v-23.24c0-2.146,0.314-4.095,0.944-5.845s1.75-3.255,3.36-4.515
			c1.61-1.26,3.838-2.24,6.685-2.94c2.847-0.7,6.44-1.05,10.78-1.05s7.921,0.35,10.745,1.05c2.823,0.7,5.04,1.68,6.65,2.94
			c1.609,1.26,2.729,2.765,3.359,4.515s0.945,3.699,0.945,5.845v23.24c0,1.774-0.21,3.419-0.63,4.935
			c-0.42,1.517-1.145,2.859-2.17,4.025c-1.027,1.167-2.439,2.17-4.235,3.01c-1.797,0.84-4.072,1.447-6.825,1.82v3.85
			c0,0.886-0.199,1.528-0.595,1.925C86.498,66.262,85.856,66.461,84.971,66.461z M73.771,44.761c0,0.934,0.35,1.715,1.05,2.345
			c0.7,0.63,2.311,0.945,4.83,0.945c2.521,0,4.13-0.315,4.83-0.945c0.7-0.63,1.05-1.411,1.05-2.345v-19.11
			c0-0.886-0.35-1.645-1.05-2.275c-0.7-0.63-2.31-0.945-4.83-0.945c-2.52,0-4.13,0.315-4.83,0.945c-0.7,0.63-1.05,1.389-1.05,2.275
			V44.761z"/>
		<path fill="#42CCF8" stroke="#3E4E67" stroke-width="2" stroke-miterlimit="10" d="M148.881,9.761h10.43
			c0.886,0,1.528,0.199,1.925,0.595c0.396,0.397,0.596,1.039,0.596,1.925v27.16c0,1.494-0.06,2.882-0.176,4.165
			c-0.117,1.284-0.479,2.789-1.085,4.515l-3.5,9.52c-0.233,0.7-0.571,1.295-1.015,1.785c-0.444,0.49-1.039,0.735-1.785,0.735h-9.31
			c-0.747,0-1.425-0.163-2.03-0.49c-0.607-0.326-1.004-0.863-1.19-1.61l-3.22-11.41c-0.14-0.466-0.314-0.781-0.525-0.945
			c-0.21-0.163-0.454-0.245-0.734-0.245h-0.63c-0.28,0-0.525,0.082-0.735,0.245c-0.21,0.164-0.385,0.479-0.525,0.945l-3.289,11.41
			c-0.188,0.7-0.537,1.225-1.051,1.575s-1.144,0.525-1.89,0.525h-9.24c-0.747,0-1.389-0.233-1.925-0.7
			c-0.537-0.466-0.922-1.073-1.155-1.82l-3.5-9.66c-0.606-1.726-0.969-3.231-1.085-4.515c-0.117-1.283-0.175-2.671-0.175-4.165
			v-27.02c0-0.886,0.198-1.528,0.595-1.925c0.396-0.396,1.038-0.595,1.926-0.595h10.779c0.886,0,1.528,0.199,1.925,0.595
			c0.396,0.397,0.596,1.039,0.596,1.925v25.76l4.06-8.82c0.373-0.793,0.863-1.353,1.47-1.68c0.606-0.326,1.354-0.49,2.24-0.49h2.94
			c0.886,0,1.633,0.164,2.24,0.49c0.605,0.327,1.096,0.887,1.47,1.68l4.06,8.82v-25.76c0-0.886,0.198-1.528,0.596-1.925
			C147.352,9.96,147.993,9.761,148.881,9.761z"/>
		<path fill="#42CCF8" stroke="#3E4E67" stroke-width="2" stroke-miterlimit="10" d="M187.59,57.641
			c0,0.887-0.199,1.529-0.595,1.925c-0.397,0.397-1.039,0.595-1.926,0.595h-10.29c-0.887,0-1.528-0.198-1.925-0.595
			c-0.396-0.396-0.595-1.038-0.595-1.925v-18.48c0-1.4,0.221-3.01,0.665-4.83c0.443-1.82,1.131-3.943,2.064-6.37l6.091-15.89
			c0.279-0.793,0.711-1.376,1.295-1.75c0.583-0.373,1.341-0.56,2.274-0.56h18.83c0.886,0,1.621,0.187,2.205,0.56
			c0.583,0.374,1.016,0.957,1.295,1.75l6.09,15.89c0.934,2.427,1.621,4.55,2.065,6.37c0.443,1.82,0.665,3.43,0.665,4.83v18.48
			c0,0.887-0.199,1.529-0.595,1.925c-0.397,0.397-1.039,0.595-1.926,0.595H202.71c-0.935,0-1.622-0.198-2.065-0.595
			c-0.444-0.396-0.665-1.038-0.665-1.925v-9.8h-12.39V57.641z M191.58,24.461l-3.29,10.64h10.989l-3.29-10.64
			c-0.187-0.42-0.385-0.723-0.595-0.91c-0.21-0.186-0.455-0.28-0.734-0.28h-1.75c-0.28,0-0.525,0.094-0.735,0.28
			C191.965,23.738,191.766,24.041,191.58,24.461z"/>
		<path fill="#42CCF8" stroke="#3E4E67" stroke-width="2" stroke-miterlimit="10" d="M240.229,60.161h-10.85
			c-0.888,0-1.529-0.198-1.926-0.595c-0.396-0.396-0.595-1.038-0.595-1.925v-45.36c0-0.886,0.198-1.528,0.595-1.925
			c0.396-0.396,1.038-0.595,1.926-0.595h10.85c0.886,0,1.528,0.199,1.925,0.595c0.396,0.397,0.596,1.039,0.596,1.925v16.1h2.8
			l7.21-16.31c0.326-0.84,0.77-1.435,1.33-1.785c0.56-0.35,1.282-0.525,2.17-0.525h10.779c0.793,0,1.33,0.199,1.61,0.595
			c0.28,0.397,0.256,0.969-0.07,1.715l-7.14,16.31c2.613,0.14,4.701,1.062,6.265,2.765c1.563,1.704,2.346,3.955,2.346,6.755v19.74
			c0,0.887-0.199,1.529-0.596,1.925c-0.396,0.397-1.039,0.595-1.925,0.595H256.75c-0.888,0-1.529-0.198-1.926-0.595
			c-0.396-0.396-0.595-1.038-0.595-1.925v-13.65c0-0.746-0.187-1.33-0.56-1.75c-0.374-0.42-0.935-0.63-1.681-0.63h-9.239v16.03
			c0,0.887-0.199,1.529-0.596,1.925C241.758,59.963,241.115,60.161,240.229,60.161z"/>
		<path fill="#42CCF8" stroke="#3E4E67" stroke-width="2" stroke-miterlimit="10" d="M90.466,144.161h-35.63
			c-0.888,0-1.529-0.198-1.926-0.595c-0.396-0.396-0.595-1.038-0.595-1.925v-45.36c0-0.886,0.198-1.528,0.595-1.925
			c0.396-0.396,1.038-0.595,1.926-0.595h10.85c0.886,0,1.528,0.199,1.925,0.595c0.396,0.397,0.596,1.039,0.596,1.925v34.65h9.59
			v-11.34c0-0.886,0.197-1.528,0.595-1.925c0.396-0.396,1.038-0.595,1.925-0.595h10.15c0.886,0,1.527,0.199,1.925,0.595
			c0.396,0.397,0.595,1.039,0.595,1.925v22.05c0,0.887-0.199,1.529-0.595,1.925C91.993,143.963,91.352,144.161,90.466,144.161z"/>
		<path fill="#42CCF8" stroke="#3E4E67" stroke-width="2" stroke-miterlimit="10" d="M117.695,141.641
			c0,0.887-0.199,1.529-0.595,1.925c-0.397,0.397-1.039,0.595-1.926,0.595h-10.29c-0.887,0-1.528-0.198-1.925-0.595
			c-0.396-0.396-0.595-1.038-0.595-1.925v-18.48c0-1.4,0.221-3.01,0.665-4.83c0.443-1.82,1.131-3.943,2.064-6.37l6.091-15.89
			c0.279-0.793,0.711-1.376,1.295-1.75c0.583-0.373,1.341-0.56,2.274-0.56h18.83c0.886,0,1.621,0.187,2.205,0.56
			c0.583,0.374,1.016,0.957,1.295,1.75l6.09,15.89c0.934,2.427,1.621,4.55,2.065,6.37c0.443,1.82,0.665,3.43,0.665,4.83v18.48
			c0,0.887-0.199,1.529-0.595,1.925c-0.397,0.397-1.039,0.595-1.926,0.595h-10.569c-0.935,0-1.622-0.198-2.065-0.595
			c-0.444-0.396-0.665-1.038-0.665-1.925v-9.8h-12.39V141.641z M121.686,108.461l-3.29,10.64h10.989l-3.29-10.64
			c-0.187-0.42-0.385-0.723-0.595-0.91c-0.21-0.186-0.455-0.28-0.734-0.28h-1.75c-0.28,0-0.525,0.094-0.735,0.28
			C122.07,107.738,121.871,108.041,121.686,108.461z"/>
		<path fill="#42CCF8" stroke="#3E4E67" stroke-width="2" stroke-miterlimit="10" d="M186.364,144.161h-26.88
			c-0.887,0-1.529-0.198-1.925-0.595c-0.397-0.396-0.595-1.038-0.595-1.925v-45.36c0-0.886,0.197-1.528,0.595-1.925
			c0.396-0.396,1.038-0.595,1.925-0.595h22.33c4.573,0,7.956,0.875,10.15,2.625c2.192,1.75,3.29,4.445,3.29,8.085v3.36
			c0,1.96-0.34,3.559-1.016,4.795c-0.677,1.237-1.715,2.159-3.114,2.765c2.985,0.28,5.202,1.307,6.649,3.08
			c1.446,1.774,2.17,4.364,2.17,7.77v6.44c0,3.92-1.108,6.814-3.325,8.68C194.402,143.228,190.984,144.161,186.364,144.161z
			 M172.715,105.661v7.56h5.949c0.887,0,1.552-0.233,1.995-0.7c0.443-0.466,0.665-1.166,0.665-2.1v-1.96
			c0-0.933-0.222-1.633-0.665-2.1c-0.443-0.466-1.108-0.7-1.995-0.7H172.715z M172.715,124.001v8.26h9.1
			c0.886,0,1.551-0.233,1.995-0.7c0.443-0.466,0.665-1.166,0.665-2.1v-2.73c0-0.933-0.222-1.621-0.665-2.065
			c-0.444-0.443-1.109-0.665-1.995-0.665H172.715z"/>
		<path fill="#42CCF8" stroke="#3E4E67" stroke-width="2" stroke-miterlimit="10" d="M233.544,144.161h-22.12
			c-0.887,0-1.528-0.198-1.925-0.595c-0.396-0.396-0.595-1.038-0.595-1.925v-8.19c0-0.886,0.198-1.528,0.595-1.925
			c0.396-0.396,1.038-0.595,1.925-0.595h18.83c0.606,0,1.062-0.198,1.365-0.595c0.303-0.396,0.455-0.875,0.455-1.435
			c0-0.793-0.152-1.376-0.455-1.75c-0.304-0.373-0.759-0.583-1.365-0.63l-10.5-1.47c-3.267-0.466-5.892-1.54-7.875-3.22
			c-1.983-1.68-2.975-4.48-2.975-8.4v-7.35c0-3.966,1.283-7.011,3.85-9.135c2.566-2.123,6.113-3.185,10.641-3.185h19.6
			c0.886,0,1.528,0.199,1.925,0.595c0.396,0.397,0.596,1.039,0.596,1.925v8.33c0,0.887-0.199,1.529-0.596,1.925
			c-0.396,0.397-1.039,0.595-1.925,0.595h-16.31c-0.607,0-1.074,0.199-1.4,0.595c-0.327,0.397-0.49,0.899-0.49,1.505
			c0,0.607,0.163,1.12,0.49,1.54c0.326,0.42,0.793,0.654,1.4,0.7l10.43,1.4c3.266,0.467,5.903,1.54,7.91,3.22
			c2.006,1.68,3.01,4.48,3.01,8.4v7.35c0,3.967-1.295,7.012-3.885,9.135C241.56,143.1,238.024,144.161,233.544,144.161z"/>
	</g>
	<g>
		<path fill="#D4F0FD" stroke="#3E4E67" stroke-width="2" stroke-miterlimit="10" d="M39.934,60.433H17.814
			c-0.887,0-1.529-0.198-1.926-0.595c-0.396-0.396-0.595-1.038-0.595-1.925v-8.19c0-0.886,0.198-1.528,0.595-1.925
			c0.396-0.396,1.039-0.595,1.926-0.595h18.83c0.605,0,1.061-0.198,1.365-0.595c0.303-0.396,0.455-0.875,0.455-1.435
			c0-0.793-0.152-1.376-0.455-1.75c-0.305-0.373-0.76-0.583-1.365-0.63l-10.5-1.47c-3.268-0.466-5.893-1.54-7.875-3.22
			c-1.984-1.68-2.976-4.48-2.976-8.4v-7.35c0-3.966,1.283-7.011,3.851-9.135c2.565-2.123,6.113-3.185,10.64-3.185h19.601
			c0.885,0,1.527,0.199,1.924,0.595c0.396,0.397,0.596,1.039,0.596,1.925v8.33c0,0.887-0.199,1.529-0.596,1.925
			c-0.396,0.397-1.039,0.595-1.924,0.595H33.074c-0.607,0-1.074,0.199-1.4,0.595c-0.326,0.397-0.49,0.899-0.49,1.505
			c0,0.607,0.164,1.12,0.49,1.54s0.793,0.654,1.4,0.7l10.43,1.4c3.266,0.467,5.903,1.54,7.91,3.22c2.006,1.68,3.01,4.48,3.01,8.4
			v7.35c0,3.967-1.295,7.012-3.885,9.135C47.949,59.372,44.414,60.433,39.934,60.433z"/>
		<path fill="#D4F0FD" stroke="#3E4E67" stroke-width="2" stroke-miterlimit="10" d="M91.174,66.733H80.395
			c-0.888,0-1.529-0.199-1.926-0.595c-0.396-0.397-0.595-1.039-0.595-1.925v-3.85c-5.414-0.793-9.065-2.415-10.955-4.865
			c-1.89-2.45-2.835-5.425-2.835-8.925v-23.24c0-2.146,0.314-4.095,0.945-5.845c0.629-1.75,1.75-3.255,3.359-4.515
			c1.61-1.26,3.838-2.24,6.686-2.94c2.846-0.7,6.439-1.05,10.779-1.05s7.922,0.35,10.746,1.05c2.822,0.7,5.039,1.68,6.649,2.94
			c1.61,1.26,2.729,2.765,3.36,4.515c0.629,1.75,0.944,3.699,0.944,5.845v23.24c0,1.774-0.21,3.419-0.63,4.935
			c-0.42,1.517-1.145,2.859-2.17,4.025c-1.027,1.167-2.439,2.17-4.234,3.01c-1.798,0.84-4.072,1.447-6.826,1.82v3.85
			c0,0.886-0.199,1.528-0.594,1.925C92.701,66.534,92.061,66.733,91.174,66.733z M79.975,45.033c0,0.934,0.35,1.715,1.049,2.345
			c0.701,0.63,2.311,0.945,4.83,0.945c2.521,0,4.131-0.315,4.83-0.945c0.7-0.63,1.051-1.411,1.051-2.345v-19.11
			c0-0.886-0.351-1.645-1.051-2.275c-0.699-0.63-2.31-0.945-4.83-0.945c-2.52,0-4.129,0.315-4.83,0.945
			c-0.699,0.63-1.049,1.389-1.049,2.275V45.033z"/>
		<path fill="#D4F0FD" stroke="#3E4E67" stroke-width="2" stroke-miterlimit="10" d="M155.434,10.033h10.43
			c0.887,0,1.528,0.199,1.926,0.595c0.396,0.397,0.595,1.039,0.595,1.925v27.16c0,1.494-0.06,2.882-0.175,4.165
			c-0.117,1.284-0.479,2.789-1.086,4.515l-3.5,9.52c-0.233,0.7-0.571,1.295-1.015,1.785c-0.444,0.49-1.039,0.735-1.784,0.735h-9.311
			c-0.747,0-1.424-0.163-2.03-0.49c-0.606-0.326-1.004-0.863-1.19-1.61l-3.219-11.41c-0.141-0.466-0.315-0.781-0.525-0.945
			c-0.211-0.163-0.455-0.245-0.735-0.245h-0.63c-0.279,0-0.525,0.082-0.734,0.245c-0.211,0.164-0.386,0.479-0.525,0.945l-3.29,11.41
			c-0.187,0.7-0.537,1.225-1.05,1.575c-0.515,0.35-1.145,0.525-1.891,0.525h-9.24c-0.746,0-1.389-0.233-1.924-0.7
			c-0.537-0.466-0.923-1.073-1.156-1.82l-3.5-9.66c-0.606-1.726-0.969-3.231-1.084-4.515c-0.117-1.283-0.176-2.671-0.176-4.165
			v-27.02c0-0.886,0.198-1.528,0.596-1.925c0.396-0.396,1.037-0.595,1.925-0.595h10.78c0.885,0,1.527,0.199,1.924,0.595
			c0.396,0.397,0.596,1.039,0.596,1.925v25.76l4.061-8.82c0.373-0.793,0.862-1.353,1.469-1.68c0.606-0.326,1.354-0.49,2.24-0.49
			h2.94c0.886,0,1.633,0.164,2.24,0.49c0.606,0.327,1.096,0.887,1.47,1.68l4.061,8.82v-25.76c0-0.886,0.197-1.528,0.595-1.925
			C153.904,10.232,154.547,10.033,155.434,10.033z"/>
		<path fill="#D4F0FD" stroke="#3E4E67" stroke-width="2" stroke-miterlimit="10" d="M194.493,57.913
			c0,0.887-0.198,1.529-0.595,1.925c-0.396,0.397-1.039,0.595-1.926,0.595h-10.289c-0.887,0-1.529-0.198-1.926-0.595
			c-0.396-0.396-0.595-1.038-0.595-1.925v-18.48c0-1.4,0.222-3.01,0.665-4.83c0.443-1.82,1.131-3.943,2.064-6.37l6.091-15.89
			c0.28-0.793,0.711-1.376,1.295-1.75c0.583-0.373,1.341-0.56,2.274-0.56h18.83c0.887,0,1.621,0.187,2.205,0.56
			c0.584,0.374,1.016,0.957,1.295,1.75l6.09,15.89c0.934,2.427,1.621,4.55,2.065,6.37c0.443,1.82,0.665,3.43,0.665,4.83v18.48
			c0,0.887-0.199,1.529-0.595,1.925c-0.397,0.397-1.039,0.595-1.925,0.595h-10.57c-0.934,0-1.622-0.198-2.064-0.595
			c-0.445-0.396-0.666-1.038-0.666-1.925v-9.8h-12.39V57.913z M198.483,24.733l-3.29,10.64h10.99l-3.291-10.64
			c-0.187-0.42-0.385-0.723-0.594-0.91c-0.211-0.186-0.455-0.28-0.735-0.28h-1.75c-0.28,0-0.525,0.094-0.735,0.28
			C198.868,24.01,198.67,24.313,198.483,24.733z"/>
		<path fill="#D4F0FD" stroke="#3E4E67" stroke-width="2" stroke-miterlimit="10" d="M247.482,60.433h-10.85
			c-0.887,0-1.529-0.198-1.926-0.595c-0.396-0.396-0.594-1.038-0.594-1.925v-45.36c0-0.886,0.197-1.528,0.594-1.925
			c0.396-0.396,1.039-0.595,1.926-0.595h10.85c0.887,0,1.528,0.199,1.926,0.595c0.396,0.397,0.595,1.039,0.595,1.925v16.1h2.8
			l7.21-16.31c0.326-0.84,0.771-1.435,1.33-1.785s1.282-0.525,2.17-0.525h10.78c0.793,0,1.33,0.199,1.609,0.595
			c0.28,0.397,0.256,0.969-0.07,1.715l-7.139,16.31c2.612,0.14,4.7,1.062,6.264,2.765c1.563,1.704,2.346,3.955,2.346,6.755v19.74
			c0,0.887-0.199,1.529-0.596,1.925c-0.396,0.397-1.039,0.595-1.924,0.595h-10.78c-0.888,0-1.529-0.198-1.925-0.595
			c-0.397-0.396-0.596-1.038-0.596-1.925v-13.65c0-0.746-0.187-1.33-0.56-1.75c-0.374-0.42-0.935-0.63-1.681-0.63h-9.239v16.03
			c0,0.887-0.199,1.529-0.595,1.925C249.011,60.235,248.369,60.433,247.482,60.433z"/>
		<path fill="#D4F0FD" stroke="#3E4E67" stroke-width="2" stroke-miterlimit="10" d="M96.668,144.433H61.039
			c-0.888,0-1.529-0.198-1.926-0.595c-0.396-0.396-0.595-1.038-0.595-1.925v-45.36c0-0.886,0.198-1.528,0.595-1.925
			c0.396-0.396,1.038-0.595,1.926-0.595h10.85c0.886,0,1.527,0.199,1.925,0.595c0.396,0.397,0.595,1.039,0.595,1.925v34.65h9.59
			v-11.34c0-0.886,0.198-1.528,0.596-1.925c0.396-0.396,1.037-0.595,1.925-0.595h10.149c0.887,0,1.528,0.199,1.926,0.595
			c0.396,0.397,0.595,1.039,0.595,1.925v22.05c0,0.887-0.199,1.529-0.595,1.925C98.196,144.235,97.555,144.433,96.668,144.433z"/>
		<path fill="#D4F0FD" stroke="#3E4E67" stroke-width="2" stroke-miterlimit="10" d="M124.248,141.913
			c0,0.887-0.199,1.529-0.596,1.925c-0.396,0.397-1.039,0.595-1.925,0.595h-10.29c-0.887,0-1.529-0.198-1.925-0.595
			c-0.397-0.396-0.595-1.038-0.595-1.925v-18.48c0-1.4,0.221-3.01,0.664-4.83c0.443-1.82,1.132-3.943,2.065-6.37l6.091-15.89
			c0.279-0.793,0.711-1.376,1.295-1.75c0.582-0.373,1.34-0.56,2.274-0.56h18.83c0.886,0,1.621,0.187,2.205,0.56
			c0.583,0.374,1.015,0.957,1.295,1.75l6.09,15.89c0.933,2.427,1.621,4.55,2.065,6.37c0.443,1.82,0.664,3.43,0.664,4.83v18.48
			c0,0.887-0.198,1.529-0.594,1.925c-0.397,0.397-1.039,0.595-1.926,0.595h-10.57c-0.934,0-1.621-0.198-2.064-0.595
			c-0.444-0.396-0.665-1.038-0.665-1.925v-9.8h-12.39V141.913z M128.238,108.733l-3.291,10.64h10.99l-3.29-10.64
			c-0.187-0.42-0.385-0.723-0.595-0.91c-0.21-0.186-0.455-0.28-0.734-0.28h-1.75c-0.281,0-0.525,0.094-0.736,0.28
			C128.623,108.01,128.424,108.313,128.238,108.733z"/>
		<path fill="#D4F0FD" stroke="#3E4E67" stroke-width="2" stroke-miterlimit="10" d="M193.268,144.433h-26.88
			c-0.888,0-1.529-0.198-1.925-0.595c-0.397-0.396-0.596-1.038-0.596-1.925v-45.36c0-0.886,0.198-1.528,0.596-1.925
			c0.396-0.396,1.037-0.595,1.925-0.595h22.33c4.573,0,7.956,0.875,10.149,2.625s3.291,4.445,3.291,8.085v3.36
			c0,1.96-0.34,3.559-1.016,4.795c-0.678,1.237-1.715,2.159-3.115,2.765c2.986,0.28,5.203,1.307,6.65,3.08
			c1.445,1.774,2.17,4.364,2.17,7.77v6.44c0,3.92-1.109,6.814-3.325,8.68C201.306,143.5,197.888,144.433,193.268,144.433z
			 M179.617,105.933v7.56h5.95c0.886,0,1.552-0.233,1.995-0.7c0.443-0.466,0.665-1.166,0.665-2.1v-1.96
			c0-0.933-0.222-1.633-0.665-2.1c-0.443-0.466-1.109-0.7-1.995-0.7H179.617z M179.617,124.273v8.26h9.101
			c0.886,0,1.551-0.233,1.995-0.7c0.443-0.466,0.664-1.166,0.664-2.1v-2.73c0-0.933-0.221-1.621-0.664-2.065
			c-0.444-0.443-1.109-0.665-1.995-0.665H179.617z"/>
		<path fill="#D4F0FD" stroke="#3E4E67" stroke-width="2" stroke-miterlimit="10" d="M240.797,144.433h-22.12
			c-0.887,0-1.528-0.198-1.925-0.595c-0.396-0.396-0.596-1.038-0.596-1.925v-8.19c0-0.886,0.199-1.528,0.596-1.925
			c0.396-0.396,1.038-0.595,1.925-0.595h18.83c0.606,0,1.062-0.198,1.365-0.595c0.303-0.396,0.455-0.875,0.455-1.435
			c0-0.793-0.152-1.376-0.455-1.75c-0.304-0.373-0.759-0.583-1.365-0.63l-10.5-1.47c-3.267-0.466-5.892-1.54-7.875-3.22
			c-1.983-1.68-2.976-4.48-2.976-8.4v-7.35c0-3.966,1.283-7.011,3.851-9.135c2.565-2.123,6.113-3.185,10.64-3.185h19.601
			c0.886,0,1.528,0.199,1.925,0.595c0.396,0.397,0.596,1.039,0.596,1.925v8.33c0,0.887-0.199,1.529-0.596,1.925
			c-0.396,0.397-1.039,0.595-1.925,0.595h-16.31c-0.607,0-1.074,0.199-1.4,0.595c-0.327,0.397-0.49,0.899-0.49,1.505
			c0,0.607,0.163,1.12,0.49,1.54c0.326,0.42,0.793,0.654,1.4,0.7l10.43,1.4c3.266,0.467,5.902,1.54,7.91,3.22
			c2.006,1.68,3.01,4.48,3.01,8.4v7.35c0,3.967-1.295,7.012-3.885,9.135C248.812,143.372,245.277,144.433,240.797,144.433z"/>
	</g>
	<g>
	</g>
	<g>
	</g>
	<g>
	</g>
	<g>
	</g>
	<g>
	</g>
	<g>
	</g>
	<g>
	</g>
	<g>
	</g>
	<g>
	</g>
	<g>
	</g>
	<g>
	</g>
	<g>
	</g>
	<g>
	</g>
	<g>
	</g>
	<g>
	</g>
</g>
</svg>
