<?xml version="1.0" encoding="utf-8"?>
<!-- Generator: Adobe Illustrator 16.0.0, SVG Export Plug-In . SVG Version: 6.00 Build 0)  -->
<!DOCTYPE svg PUBLIC "-//W3C//DTD SVG 1.1//EN" "http://www.w3.org/Graphics/SVG/1.1/DTD/svg11.dtd">
<svg version="1.1"
	 id="Layer_1" xmlns:svg="http://www.w3.org/2000/svg" xmlns:rdf="http://www.w3.org/1999/02/22-rdf-syntax-ns#" xmlns:sodipodi="http://sodipodi.sourceforge.net/DTD/sodipodi-0.dtd" xmlns:cc="http://creativecommons.org/ns#" xmlns:dc="http://purl.org/dc/elements/1.1/" xmlns:inkscape="http://www.inkscape.org/namespaces/inkscape"
	 xmlns="http://www.w3.org/2000/svg" xmlns:xlink="http://www.w3.org/1999/xlink" x="0px" y="0px" width="109.5px"
	 height="435.394px" viewBox="179.496 103.607 109.5 435.394" enable-background="new 179.496 103.607 109.5 435.394"
	 xml:space="preserve">
<path fill="#D4F0FD" stroke="#3E4E67" stroke-width="3" stroke-miterlimit="10" d="M278.672,317.833
	c0,4.511-2.278,8.167-5.088,8.167h-77.492c-2.81,0-5.088-3.656-5.088-8.167l0,0c0-4.51,2.278-8.167,5.088-8.167h77.492
	C276.394,309.667,278.672,313.323,278.672,317.833L278.672,317.833z"/>
<path fill="#D4F0FD" stroke="#3E4E67" stroke-width="3" stroke-miterlimit="10" d="M269.542,327.001v166
	c0,24.577-15.595,44.5-34.833,44.5l0,0c-19.237,0-34.832-19.923-34.832-44.5v-166"/>
<path fill="#FF5D55" stroke="#3E4E67" stroke-width="3" stroke-miterlimit="10" d="M264.19,139.933v0.005l-28.852,28.857
	l-28.856-28.856v-0.004c-7.964-7.97-7.964-20.882,0-28.852c3.985-3.979,9.209-5.975,14.428-5.975s10.438,1.995,14.423,5.975h0.006
	c3.985-3.979,9.199-5.975,14.423-5.975c5.224,0,10.443,1.995,14.428,5.975C272.155,119.052,272.155,131.964,264.19,139.933z"/>
<circle fill="#FF5D55" stroke="#3E4E67" stroke-width="2.5" stroke-miterlimit="10" cx="205.013" cy="182.208" r="10.504"/>
<circle fill="#FF5D55" stroke="#3E4E67" stroke-width="2.5" stroke-miterlimit="10" cx="262.087" cy="190.284" r="8.077"/>
<circle fill="#FF5D55" stroke="#3E4E67" stroke-width="2.5" stroke-miterlimit="10" cx="205.749" cy="285.24" r="5.24"/>
<circle fill="#FF5D55" stroke="#3E4E67" stroke-width="2.5" stroke-miterlimit="10" cx="222.5" cy="231.457" r="6.976"/>
<circle fill="#FF5D55" stroke="#3E4E67" stroke-width="2.5" stroke-miterlimit="10" cx="257.232" cy="280" r="5.24"/>
<path fill="#FF5D55" stroke="#3E4E67" stroke-width="3" stroke-miterlimit="10" d="M199.878,404.134v93.775
	c0,21.866,15.595,39.591,34.832,39.591c19.238,0,34.833-17.725,34.833-39.591v-93.775
	C258.026,381.111,216.835,417.922,199.878,404.134z"/>
<circle fill="#F98787" cx="214.002" cy="490.509" r="2.957"/>
<circle fill="#F98787" cx="235.555" cy="443.318" r="2.976"/>
<circle fill="#F98787" cx="243.945" cy="504.626" r="4.52"/>
<circle fill="#F98787" cx="247.115" cy="474.523" r="2.976"/>
</svg>
